<?xml version="1.0" encoding="utf-8"?>
<!-- Generator: Adobe Illustrator 27.5.0, SVG Export Plug-In . SVG Version: 6.00 Build 0)  -->
<svg version="1.1" id="Layer_1" xmlns="http://www.w3.org/2000/svg" xmlns:xlink="http://www.w3.org/1999/xlink" x="0px" y="0px"
	 viewBox="0 0 65.3 65.3" style="enable-background:new 0 0 65.3 65.3;" xml:space="preserve">
<style type="text/css">
	.st0{fill:#FFFFFF;}
</style>
<g>
	<path class="st0" d="M55.2,59.5c-0.9-0.3-1.6-0.9-2.2-1.6c-3.9-4.1-7.8-8.1-11.7-12.2c-0.1-0.1-0.3-0.3-0.4-0.4
		c-5.8,3.8-12.1,4.9-18.7,2.9c-4.9-1.5-8.9-4.4-11.7-8.7C4.3,30.2,6.1,18,14.6,10.9c8.2-6.8,19.7-6.6,27.7,0.1
		c4.5,3.8,7.2,8.7,7.7,14.7c0.5,5.9-1.2,11.2-5,15.8c0.2,0.3,0.5,0.5,0.7,0.8c3.9,4.1,7.9,8.2,11.8,12.3c1.2,1.3,1.3,3,0.2,4.1
		c-0.4,0.4-1,0.6-1.5,0.9C55.9,59.5,55.5,59.5,55.2,59.5z M28.4,43.5c8.8,0,16-7.2,16-16c0-8.8-7.2-16-16-16c-8.8,0-16,7.2-16,16
		C12.5,36.4,19.6,43.5,28.4,43.5z"/>
</g>
</svg>
