<?xml version="1.0" encoding="utf-8"?>
<!-- Generator: Adobe Illustrator 25.3.1, SVG Export Plug-In . SVG Version: 6.00 Build 0)  -->
<svg version="1.1" id="Layer_1" xmlns="http://www.w3.org/2000/svg" xmlns:xlink="http://www.w3.org/1999/xlink" x="0px" y="0px"
	 viewBox="0 0 400 131.33" style="enable-background:new 0 0 400 131.33;" xml:space="preserve">
<style type="text/css">
	.st0{fill:#FFFFFF;}
</style>
<g>
	<path class="st0" d="M161.94,85.79c-0.26-1.33-0.46-2.69-0.6-4.01c-1.1,2.77-3.67,4.36-7.23,4.36c-4.91,0-7.14-2.31-7.14-7.16
		v-9.19l14.07-5.03v-8.41h-8.58v6.82h-5.49v-4.01c0-5.2,2.81-7.6,9.8-7.6c7.02,0,9.79,2.4,9.79,7.66v15.92
		c0,3.73,0.17,7.22,0.84,10.66H161.94z M161.3,81.31c-0.2-1.97-0.26-3.93-0.26-5.87v-6.73l-8.58,3.12v9.48H161.3z"/>
	<path class="st0" d="M191.72,79.86V56.35h-3.52v-4.48h3.52v-6.59l5.46-0.98v7.57h5.28v4.48h-5.28v24.96h5.28v4.48h-4.22
		C193.86,85.79,191.72,84.2,191.72,79.86z"/>
	<path class="st0" d="M261.67,78.54V59.15c0-5.14,2.71-7.6,10.02-7.6c7.31,0,10.02,2.46,10.02,7.6v19.39
		c0,5.14-2.72,7.59-10.02,7.59C264.38,86.13,261.67,83.68,261.67,78.54z M276.23,81.31V56.35h-9.07v24.96H276.23z"/>
	<path class="st0" d="M305.21,78.51V59.15c0-5.14,2.77-7.6,9.88-7.6c7.08,0,9.83,2.46,9.83,7.6v5.46h-5.49v-8.26h-8.73v24.96h8.73
		v-8.26h5.49v5.46c0,5.17-2.75,7.62-9.83,7.62C307.98,86.13,305.21,83.68,305.21,78.51z"/>
	<path class="st0" d="M363.37,85.79c-0.26-1.33-0.46-2.69-0.6-4.01c-1.1,2.77-3.67,4.36-7.23,4.36c-4.91,0-7.13-2.31-7.13-7.16
		v-9.19l14.07-5.03v-8.41h-8.58v6.82h-5.49v-4.01c0-5.2,2.8-7.6,9.79-7.6c7.02,0,9.79,2.4,9.79,7.66v15.92
		c0,3.73,0.17,7.22,0.84,10.66H363.37z M362.73,81.31c-0.2-1.97-0.26-3.93-0.26-5.87v-6.73l-8.58,3.12v9.48H362.73z"/>
	<path class="st0" d="M392.46,43.34h5.46v42.45h-5.46V43.34z"/>
	<g>
		<g>
			<path class="st0" d="M23.34,111H22.9c-1.25,0-2.48-0.12-3.7-0.37c-4.25-0.9-7.84-2.84-10.77-5.83c-1.93-2.05-3.4-4.39-4.4-7
				c-0.66-1.68-1.11-3.44-1.36-5.27c-0.07-0.42-0.14-0.85-0.2-1.3s-0.09-0.93-0.09-1.45c-0.05-0.78-0.07-1.56-0.07-2.34
				c0-4.67,0.83-9.24,2.49-13.71c1.85-5.17,4.54-9.89,8.06-14.14s7.73-7.66,12.64-10.23c5.16-2.64,10.74-3.99,16.75-4.07
				c2.47,0,4.92,0.32,7.37,0.95c2.78,0.78,5.26,2.14,7.44,4.07c2.12,1.98,3.74,4.3,4.84,6.96c1.3,3.23,1.94,6.73,1.94,10.52
				c0,1.98-0.18,3.94-0.55,5.9c-1.05,6.18-3.38,11.18-7,14.99c-1.93,2.05-4.13,3.77-6.6,5.17c-1.22,0.71-2.49,1.31-3.81,1.8
				c-1.95,0.75-3.82,1.14-5.6,1.14l-0.88-0.04c-0.78-0.02-1.6-0.25-2.45-0.66c-1.64-0.93-2.5-2.42-2.6-4.47
				c-0.05-0.42-0.07-0.83-0.07-1.25c0-1.95,0.44-4.35,1.32-7.18l0.55-1.65L35.24,83c-0.68,1.15-1.4,2.3-2.16,3.46
				c-0.75,1.16-1.6,2.29-2.53,3.39l-0.29,0.3c-0.42,0.44-0.87,0.87-1.35,1.28c-0.61,0.53-1.43,0.94-2.46,1.21
				c-0.27,0.07-0.54,0.11-0.81,0.11c-0.29,0-0.58-0.04-0.88-0.11c-0.15,0-0.34-0.06-0.59-0.18c-0.68-0.37-1.11-0.81-1.28-1.34
				c-0.17-0.53-0.28-1.07-0.33-1.63c0-0.49,0.02-0.92,0.07-1.28c0.39-2.47,1.34-5.14,2.86-8.02c1.37-2.76,2.91-5.12,4.62-7.08
				c1.15-1.37,2.41-2.33,3.77-2.89c0.44-0.2,0.95-0.32,1.54-0.37c0.59,0,1.17,0.12,1.76,0.37c0.59,0.24,1.05,0.57,1.39,0.99
				c0.15-0.29,0.6-0.94,1.36-1.94c0.32-0.42,0.77-0.92,1.35-1.5c0.1-0.07,0.2-0.15,0.29-0.22c0.1-0.08,0.25-0.15,0.44-0.22
				c0.02,0,0.07-0.02,0.13-0.06c0.06-0.03,0.19-0.05,0.38-0.05c0.49,0,0.88,0.17,1.17,0.51c0.29,0.34,0.44,0.71,0.44,1.1
				c0,0.27-0.04,0.51-0.11,0.74L44,69.66c-0.05,0.17-0.1,0.33-0.15,0.48c-0.05,0.15-0.1,0.31-0.17,0.48
				c-0.06,0.17-0.26,0.66-0.6,1.47l-1.98,4.58c-1.91,4.45-3.13,8.15-3.66,11.1c-0.22,1-0.33,1.97-0.33,2.89l0.03,0.7
				c0.15,1.17,0.51,1.92,1.1,2.24c0.49,0.27,1.19,0.4,2.09,0.4c0.34,0,0.68-0.02,1.03-0.07c2.39-0.37,4.71-1.18,6.96-2.46
				c4.59-2.56,7.99-6.18,10.18-10.85c1.86-4.27,2.79-8.65,2.79-13.12c0-3.42-0.56-6.52-1.69-9.31c-0.92-2.4-2.31-4.43-4.14-6.12
				c-3.4-3.03-7.83-4.54-13.3-4.54H41.4c-5.26,0.08-10.24,1.3-14.95,3.67c-4.67,2.39-8.71,5.6-12.13,9.64
				c-3.42,4.03-6.05,8.52-7.88,13.49c-1.67,4.4-2.5,8.89-2.5,13.48c0,1.69,0.06,2.96,0.18,3.81l0.11,0.77l0.18,1.17
				c0.85,4.13,2.54,7.54,5.06,10.22c1.81,1.88,3.91,3.34,6.3,4.36c2.5,1,4.84,1.5,7.04,1.5h0.48c0.19,0,0.36,0.06,0.5,0.18
				c0.13,0.12,0.2,0.28,0.2,0.48c0,0.17-0.06,0.33-0.18,0.46C23.69,110.89,23.53,110.97,23.34,111z M25.9,89.41
				c0.26-0.09,0.59-0.29,0.99-0.58c1.05-0.83,2.22-2.22,3.52-4.18c1.15-1.71,2.65-4.17,4.51-7.4l1.65-2.82
				c-0.1-0.1-0.18-0.22-0.25-0.37c-0.22-0.39-0.41-0.61-0.55-0.66l-0.18-0.03c-0.09,0-0.23,0.03-0.4,0.11
				c-0.73,0.27-1.57,0.93-2.49,1.98c-1.61,1.85-3,3.94-4.18,6.26c-1.37,2.64-2.22,4.96-2.57,6.96L25.9,89.41z"/>
			<path class="st0" d="M84.64,129.21c-2.32,0-4.45-0.24-6.38-0.7c-2.12-0.51-4.1-1.43-5.93-2.75c-3.33-2.4-5.55-6.07-6.67-11.03
				c-0.64-2.84-0.95-6.03-0.95-9.6c0-3.06,0.21-6.07,0.62-9.05c1.12-8.16,2.82-16.16,5.09-24c2.27-7.84,4.79-15.59,7.55-23.23
				c4.15-11.51,8.61-22.87,13.37-34.08c1.59-3.76,3.19-7.51,4.8-11.25c0.32-0.56,0.76-0.84,1.32-0.84c0.17,0,0.35,0.04,0.55,0.11
				c0.56,0.32,0.84,0.75,0.84,1.28c0,0.19-0.04,0.39-0.11,0.58v0.07C91.67,19.3,85.41,34.24,79.99,49.54
				c-2.74,7.65-5.16,15.37-7.26,23.16c-3.44,13-5.17,23.78-5.17,32.36c0,3.4,0.29,6.42,0.88,9.05c0.95,4.23,2.8,7.37,5.53,9.42
				c3,2.22,6.99,3.34,11.95,3.34c1.54,0,3.09-0.1,4.65-0.3c7.58-1.02,15.19-3.49,22.83-7.4c3.61-1.81,7.09-3.86,10.41-6.16
				c3.93-2.74,6.95-5.35,9.05-7.84c0.25-0.25,0.51-0.37,0.81-0.37c0.22,0,0.43,0.09,0.64,0.27s0.31,0.42,0.31,0.72
				c0,0.22-0.08,0.44-0.22,0.66c-1.32,1.32-2.94,2.67-4.87,4.07c-4.79,3.47-10.01,6.66-15.65,9.56c-8.33,4.3-16,7.12-23.02,8.47
				C88.82,128.94,86.74,129.16,84.64,129.21z"/>
		</g>
		<path class="st0" d="M107.76,97.19c-6.87,11.34-18.17,20.04-31.22,23.57c-13.04,3.62-27.66,1.35-39.12-5.97
			c-11.53-7.31-19.51-19.34-22.5-32.34c-2.97-13.04-0.96-27.15,5.91-38.77c6.82-11.59,18.44-20.49,31.73-23.69
			c13.22-3.33,27.82-1.13,39.41,6.19c11.69,7.12,20.2,19.22,22.82,32.51C117.49,71.95,114.81,85.96,107.76,97.19z M107.48,97.02
			c3.36-5.67,5.69-11.96,6.55-18.46c0.85-6.5,0.39-13.13-1.33-19.37c-3.41-12.51-11.58-23.44-22.49-30.13
			c-10.92-6.65-24.4-8.96-36.92-6.06c-12.5,2.84-23.93,10.61-30.91,21.63c-7.09,10.89-9.59,24.85-6.34,37.57
			c3.05,12.79,11.74,23.79,22.82,30.3c11.05,6.64,24.51,8.89,37.22,6.28c6.35-1.3,12.47-3.88,17.9-7.56
			C99.38,107.5,103.94,102.57,107.48,97.02z"/>
	</g>
	<polygon class="st0" points="230.6,81.27 230.6,43.34 225.15,43.34 225.15,81.27 225.1,81.27 225.1,86.43 247.65,86.43 
		247.65,81.27 	"/>
</g>
</svg>
